<svg xmlns="http://www.w3.org/2000/svg" viewBox="0 0 64 64" role="img" aria-label="tabby">
  <title>tabby</title>
  <defs>
    <mask id="cut">
      <rect width="64" height="64" fill="#fff"/>
      <rect x="22.4" y="19.2" width="4.2" height="10" rx="2.1" fill="#000" transform="rotate(-14 24.5 24.2)"/>
      <rect x="29.9" y="17.6" width="4.2" height="11.4" rx="2.1" fill="#000"/>
      <rect x="37.4" y="19.2" width="4.2" height="10" rx="2.1" fill="#000" transform="rotate(14 39.5 24.2)"/>
      <ellipse cx="23.2" cy="38.4" rx="3.3" ry="3.7" fill="#000"/>
      <ellipse cx="40.8" cy="38.4" rx="3.3" ry="3.7" fill="#000"/>
      <path fill="#000" d="M29.6 43.4h4.8L32 46.2Z"/>
    </mask>
  </defs>
  <path mask="url(#cut)" fill="#000" d="M10 24 13.5 8.6Q14 6.5 15.8 7.7L26.5 15.4Q32 13.7 37.5 15.4L48.2 7.7Q50 6.5 50.5 8.6L54 24Q57 30 57 37.5 57 57.5 32 57.5 7 57.5 7 37.5 7 30 10 24Z"/>
</svg>
